<mxfile host="Electron" agent="Mozilla/5.0 (Windows NT 10.0; Win64; x64) AppleWebKit/537.36 (KHTML, like Gecko) draw.io/28.1.2 Chrome/138.0.7204.243 Electron/37.4.0 Safari/537.36" version="28.1.2">
  <diagram name="Página-1" id="hfcVUyJ-T8KApzwiuHe0">
    <mxGraphModel dx="1783" dy="1051" grid="1" gridSize="10" guides="1" tooltips="1" connect="1" arrows="1" fold="1" page="1" pageScale="1" pageWidth="827" pageHeight="1169" math="0" shadow="0">
      <root>
        <mxCell id="0" />
        <mxCell id="1" parent="0" />
        <mxCell id="Kb_YRcVbUNTg5b5ypHSj-3" value="Cliente / Usuário" style="sketch=0;outlineConnect=0;gradientColor=none;fontColor=#545B64;strokeColor=none;fillColor=#879196;dashed=0;verticalLabelPosition=bottom;verticalAlign=top;align=center;html=1;fontSize=12;fontStyle=0;aspect=fixed;shape=mxgraph.aws4.illustration_users;pointerEvents=1" vertex="1" parent="1">
          <mxGeometry x="90" y="260" width="60" height="60" as="geometry" />
        </mxCell>
        <mxCell id="Kb_YRcVbUNTg5b5ypHSj-7" style="edgeStyle=orthogonalEdgeStyle;rounded=0;orthogonalLoop=1;jettySize=auto;html=1;entryX=0;entryY=0.5;entryDx=0;entryDy=0;entryPerimeter=0;" edge="1" parent="1" source="Kb_YRcVbUNTg5b5ypHSj-3" target="Kb_YRcVbUNTg5b5ypHSj-6">
          <mxGeometry relative="1" as="geometry" />
        </mxCell>
        <mxCell id="Kb_YRcVbUNTg5b5ypHSj-18" value="Region" style="points=[[0,0],[0.25,0],[0.5,0],[0.75,0],[1,0],[1,0.25],[1,0.5],[1,0.75],[1,1],[0.75,1],[0.5,1],[0.25,1],[0,1],[0,0.75],[0,0.5],[0,0.25]];outlineConnect=0;gradientColor=none;html=1;whiteSpace=wrap;fontSize=12;fontStyle=0;container=0;pointerEvents=0;collapsible=0;recursiveResize=0;shape=mxgraph.aws4.group;grIcon=mxgraph.aws4.group_region;strokeColor=#00A4A6;fillColor=none;verticalAlign=top;align=left;spacingLeft=30;fontColor=#147EBA;dashed=1;" vertex="1" parent="1">
          <mxGeometry x="170" y="120" width="1130" height="880" as="geometry" />
        </mxCell>
        <mxCell id="Kb_YRcVbUNTg5b5ypHSj-20" value="Public subnet" style="points=[[0,0],[0.25,0],[0.5,0],[0.75,0],[1,0],[1,0.25],[1,0.5],[1,0.75],[1,1],[0.75,1],[0.5,1],[0.25,1],[0,1],[0,0.75],[0,0.5],[0,0.25]];outlineConnect=0;gradientColor=none;html=1;whiteSpace=wrap;fontSize=12;fontStyle=0;container=0;pointerEvents=0;collapsible=0;recursiveResize=0;shape=mxgraph.aws4.group;grIcon=mxgraph.aws4.group_security_group;grStroke=0;strokeColor=#7AA116;fillColor=#2D3C2B;verticalAlign=top;align=left;spacingLeft=30;fontColor=#248814;dashed=0;movable=1;resizable=1;rotatable=1;deletable=1;editable=1;locked=0;connectable=1;" vertex="1" parent="1">
          <mxGeometry x="270" y="170" width="620" height="370" as="geometry" />
        </mxCell>
        <mxCell id="Kb_YRcVbUNTg5b5ypHSj-17" value="" style="sketch=0;points=[[0,0,0],[0.25,0,0],[0.5,0,0],[0.75,0,0],[1,0,0],[0,1,0],[0.25,1,0],[0.5,1,0],[0.75,1,0],[1,1,0],[0,0.25,0],[0,0.5,0],[0,0.75,0],[1,0.25,0],[1,0.5,0],[1,0.75,0]];outlineConnect=0;fontColor=#232F3E;fillColor=#8C4FFF;strokeColor=#ffffff;dashed=0;verticalLabelPosition=bottom;verticalAlign=top;align=center;html=1;fontSize=12;fontStyle=0;aspect=fixed;shape=mxgraph.aws4.resourceIcon;resIcon=mxgraph.aws4.elastic_load_balancing;" vertex="1" parent="1">
          <mxGeometry x="610" y="263" width="54" height="54" as="geometry" />
        </mxCell>
        <mxCell id="Kb_YRcVbUNTg5b5ypHSj-24" style="edgeStyle=orthogonalEdgeStyle;rounded=0;orthogonalLoop=1;jettySize=auto;html=1;entryX=0;entryY=0.5;entryDx=0;entryDy=0;entryPerimeter=0;" edge="1" parent="1" source="Kb_YRcVbUNTg5b5ypHSj-8" target="Kb_YRcVbUNTg5b5ypHSj-11">
          <mxGeometry relative="1" as="geometry" />
        </mxCell>
        <mxCell id="Kb_YRcVbUNTg5b5ypHSj-25" style="edgeStyle=orthogonalEdgeStyle;rounded=0;orthogonalLoop=1;jettySize=auto;html=1;entryX=0;entryY=0.5;entryDx=0;entryDy=0;entryPerimeter=0;" edge="1" parent="1" source="Kb_YRcVbUNTg5b5ypHSj-8" target="Kb_YRcVbUNTg5b5ypHSj-12">
          <mxGeometry relative="1" as="geometry" />
        </mxCell>
        <mxCell id="Kb_YRcVbUNTg5b5ypHSj-26" style="edgeStyle=orthogonalEdgeStyle;rounded=0;orthogonalLoop=1;jettySize=auto;html=1;entryX=0;entryY=0.5;entryDx=0;entryDy=0;entryPerimeter=0;" edge="1" parent="1" source="Kb_YRcVbUNTg5b5ypHSj-11" target="Kb_YRcVbUNTg5b5ypHSj-17">
          <mxGeometry relative="1" as="geometry" />
        </mxCell>
        <mxCell id="Kb_YRcVbUNTg5b5ypHSj-27" style="edgeStyle=orthogonalEdgeStyle;rounded=0;orthogonalLoop=1;jettySize=auto;html=1;entryX=0;entryY=0.5;entryDx=0;entryDy=0;entryPerimeter=0;" edge="1" parent="1" source="Kb_YRcVbUNTg5b5ypHSj-12" target="Kb_YRcVbUNTg5b5ypHSj-17">
          <mxGeometry relative="1" as="geometry" />
        </mxCell>
        <mxCell id="Kb_YRcVbUNTg5b5ypHSj-28" style="edgeStyle=orthogonalEdgeStyle;rounded=0;orthogonalLoop=1;jettySize=auto;html=1;entryX=0;entryY=0.5;entryDx=0;entryDy=0;entryPerimeter=0;" edge="1" parent="1" source="Kb_YRcVbUNTg5b5ypHSj-17" target="Kb_YRcVbUNTg5b5ypHSj-14">
          <mxGeometry relative="1" as="geometry" />
        </mxCell>
        <mxCell id="Kb_YRcVbUNTg5b5ypHSj-29" style="edgeStyle=orthogonalEdgeStyle;rounded=0;orthogonalLoop=1;jettySize=auto;html=1;entryX=0;entryY=0.5;entryDx=0;entryDy=0;entryPerimeter=0;" edge="1" parent="1" source="Kb_YRcVbUNTg5b5ypHSj-17" target="Kb_YRcVbUNTg5b5ypHSj-13">
          <mxGeometry relative="1" as="geometry" />
        </mxCell>
        <mxCell id="Kb_YRcVbUNTg5b5ypHSj-12" value="&lt;font style=&quot;color: rgb(255, 255, 255);&quot;&gt;Web App 2&lt;/font&gt;" style="sketch=0;points=[[0,0,0],[0.25,0,0],[0.5,0,0],[0.75,0,0],[1,0,0],[0,1,0],[0.25,1,0],[0.5,1,0],[0.75,1,0],[1,1,0],[0,0.25,0],[0,0.5,0],[0,0.75,0],[1,0.25,0],[1,0.5,0],[1,0.75,0]];outlineConnect=0;fontColor=#3D3D3E;fillColor=#ED7100;strokeColor=#ffffff;dashed=0;verticalLabelPosition=bottom;verticalAlign=top;align=center;html=1;fontSize=12;fontStyle=0;aspect=fixed;shape=mxgraph.aws4.resourceIcon;resIcon=mxgraph.aws4.ec2;" vertex="1" parent="1">
          <mxGeometry x="470" y="320" width="48" height="48" as="geometry" />
        </mxCell>
        <mxCell id="Kb_YRcVbUNTg5b5ypHSj-11" value="&lt;font style=&quot;color: rgb(255, 255, 255);&quot;&gt;Web App 1&lt;/font&gt;" style="sketch=0;points=[[0,0,0],[0.25,0,0],[0.5,0,0],[0.75,0,0],[1,0,0],[0,1,0],[0.25,1,0],[0.5,1,0],[0.75,1,0],[1,1,0],[0,0.25,0],[0,0.5,0],[0,0.75,0],[1,0.25,0],[1,0.5,0],[1,0.75,0]];outlineConnect=0;fontColor=#232F3E;fillColor=#ED7100;strokeColor=#ffffff;dashed=0;verticalLabelPosition=bottom;verticalAlign=top;align=center;html=1;fontSize=12;fontStyle=0;aspect=fixed;shape=mxgraph.aws4.resourceIcon;resIcon=mxgraph.aws4.ec2;" vertex="1" parent="1">
          <mxGeometry x="470" y="220" width="48" height="48" as="geometry" />
        </mxCell>
        <mxCell id="Kb_YRcVbUNTg5b5ypHSj-14" value="&lt;font style=&quot;color: rgb(255, 255, 255);&quot;&gt;OCR Worker 1&lt;/font&gt;" style="sketch=0;points=[[0,0,0],[0.25,0,0],[0.5,0,0],[0.75,0,0],[1,0,0],[0,1,0],[0.25,1,0],[0.5,1,0],[0.75,1,0],[1,1,0],[0,0.25,0],[0,0.5,0],[0,0.75,0],[1,0.25,0],[1,0.5,0],[1,0.75,0]];outlineConnect=0;fontColor=#232F3E;fillColor=#ED7100;strokeColor=#ffffff;dashed=0;verticalLabelPosition=bottom;verticalAlign=top;align=center;html=1;fontSize=12;fontStyle=0;aspect=fixed;shape=mxgraph.aws4.resourceIcon;resIcon=mxgraph.aws4.ec2;" vertex="1" parent="1">
          <mxGeometry x="710" y="230" width="48" height="48" as="geometry" />
        </mxCell>
        <mxCell id="Kb_YRcVbUNTg5b5ypHSj-13" value="&lt;font style=&quot;color: rgb(255, 255, 255);&quot;&gt;OCR Worker 2&lt;/font&gt;" style="sketch=0;points=[[0,0,0],[0.25,0,0],[0.5,0,0],[0.75,0,0],[1,0,0],[0,1,0],[0.25,1,0],[0.5,1,0],[0.75,1,0],[1,1,0],[0,0.25,0],[0,0.5,0],[0,0.75,0],[1,0.25,0],[1,0.5,0],[1,0.75,0]];outlineConnect=0;fontColor=#232F3E;fillColor=#ED7100;strokeColor=#ffffff;dashed=0;verticalLabelPosition=bottom;verticalAlign=top;align=center;html=1;fontSize=12;fontStyle=0;aspect=fixed;shape=mxgraph.aws4.resourceIcon;resIcon=mxgraph.aws4.ec2;" vertex="1" parent="1">
          <mxGeometry x="710" y="320" width="48" height="48" as="geometry" />
        </mxCell>
        <mxCell id="Kb_YRcVbUNTg5b5ypHSj-31" value="Private subnet" style="points=[[0,0],[0.25,0],[0.5,0],[0.75,0],[1,0],[1,0.25],[1,0.5],[1,0.75],[1,1],[0.75,1],[0.5,1],[0.25,1],[0,1],[0,0.75],[0,0.5],[0,0.25]];outlineConnect=0;gradientColor=none;html=1;whiteSpace=wrap;fontSize=12;fontStyle=0;container=1;pointerEvents=0;collapsible=0;recursiveResize=0;shape=mxgraph.aws4.group;grIcon=mxgraph.aws4.group_security_group;grStroke=0;strokeColor=#00A4A6;fillColor=#E6F6F7;verticalAlign=top;align=left;spacingLeft=30;fontColor=#147EBA;dashed=0;" vertex="1" parent="1">
          <mxGeometry x="427" y="570" width="376" height="190" as="geometry" />
        </mxCell>
        <mxCell id="Kb_YRcVbUNTg5b5ypHSj-15" value="&lt;font style=&quot;color: rgb(0, 0, 0);&quot;&gt;MySQL&lt;/font&gt;" style="sketch=0;points=[[0,0,0],[0.25,0,0],[0.5,0,0],[0.75,0,0],[1,0,0],[0,1,0],[0.25,1,0],[0.5,1,0],[0.75,1,0],[1,1,0],[0,0.25,0],[0,0.5,0],[0,0.75,0],[1,0.25,0],[1,0.5,0],[1,0.75,0]];outlineConnect=0;fontColor=#232F3E;fillColor=#ED7100;strokeColor=#ffffff;dashed=0;verticalLabelPosition=bottom;verticalAlign=top;align=center;html=1;fontSize=12;fontStyle=0;aspect=fixed;shape=mxgraph.aws4.resourceIcon;resIcon=mxgraph.aws4.ec2;" vertex="1" parent="Kb_YRcVbUNTg5b5ypHSj-31">
          <mxGeometry x="164" y="71" width="48" height="48" as="geometry" />
        </mxCell>
        <mxCell id="Kb_YRcVbUNTg5b5ypHSj-6" value="" style="sketch=0;points=[[0,0,0],[0.25,0,0],[0.5,0,0],[0.75,0,0],[1,0,0],[0,1,0],[0.25,1,0],[0.5,1,0],[0.75,1,0],[1,1,0],[0,0.25,0],[0,0.5,0],[0,0.75,0],[1,0.25,0],[1,0.5,0],[1,0.75,0]];outlineConnect=0;fontColor=#232F3E;fillColor=#8C4FFF;strokeColor=#ffffff;dashed=0;verticalLabelPosition=bottom;verticalAlign=top;align=center;html=1;fontSize=12;fontStyle=0;aspect=fixed;shape=mxgraph.aws4.resourceIcon;resIcon=mxgraph.aws4.route_53;" vertex="1" parent="1">
          <mxGeometry x="190" y="263" width="54" height="54" as="geometry" />
        </mxCell>
        <mxCell id="Kb_YRcVbUNTg5b5ypHSj-9" style="edgeStyle=orthogonalEdgeStyle;rounded=0;orthogonalLoop=1;jettySize=auto;html=1;entryX=0;entryY=0.5;entryDx=0;entryDy=0;entryPerimeter=0;" edge="1" parent="1" source="Kb_YRcVbUNTg5b5ypHSj-6" target="Kb_YRcVbUNTg5b5ypHSj-8">
          <mxGeometry relative="1" as="geometry" />
        </mxCell>
        <mxCell id="Kb_YRcVbUNTg5b5ypHSj-8" value="" style="sketch=0;points=[[0,0,0],[0.25,0,0],[0.5,0,0],[0.75,0,0],[1,0,0],[0,1,0],[0.25,1,0],[0.5,1,0],[0.75,1,0],[1,1,0],[0,0.25,0],[0,0.5,0],[0,0.75,0],[1,0.25,0],[1,0.5,0],[1,0.75,0]];outlineConnect=0;fontColor=#232F3E;fillColor=#8C4FFF;strokeColor=#ffffff;dashed=0;verticalLabelPosition=bottom;verticalAlign=top;align=center;html=1;fontSize=12;fontStyle=0;aspect=fixed;shape=mxgraph.aws4.resourceIcon;resIcon=mxgraph.aws4.elastic_load_balancing;" vertex="1" parent="1">
          <mxGeometry x="320" y="263" width="54" height="54" as="geometry" />
        </mxCell>
        <mxCell id="Kb_YRcVbUNTg5b5ypHSj-10" value="&lt;font style=&quot;color: rgb(255, 255, 255);&quot;&gt;Analytics&lt;/font&gt;" style="sketch=0;points=[[0,0,0],[0.25,0,0],[0.5,0,0],[0.75,0,0],[1,0,0],[0,1,0],[0.25,1,0],[0.5,1,0],[0.75,1,0],[1,1,0],[0,0.25,0],[0,0.5,0],[0,0.75,0],[1,0.25,0],[1,0.5,0],[1,0.75,0]];outlineConnect=0;fontColor=#232F3E;fillColor=#ED7100;strokeColor=#ffffff;dashed=0;verticalLabelPosition=bottom;verticalAlign=top;align=center;html=1;fontSize=12;fontStyle=0;aspect=fixed;shape=mxgraph.aws4.resourceIcon;resIcon=mxgraph.aws4.ec2;" vertex="1" parent="1">
          <mxGeometry x="470" y="430" width="48" height="48" as="geometry" />
        </mxCell>
        <mxCell id="Kb_YRcVbUNTg5b5ypHSj-16" style="edgeStyle=orthogonalEdgeStyle;rounded=0;orthogonalLoop=1;jettySize=auto;html=1;entryX=0;entryY=0.5;entryDx=0;entryDy=0;entryPerimeter=0;exitX=0.5;exitY=1;exitDx=0;exitDy=0;exitPerimeter=0;" edge="1" parent="1" source="Kb_YRcVbUNTg5b5ypHSj-8" target="Kb_YRcVbUNTg5b5ypHSj-10">
          <mxGeometry relative="1" as="geometry" />
        </mxCell>
        <mxCell id="Kb_YRcVbUNTg5b5ypHSj-32" style="edgeStyle=orthogonalEdgeStyle;rounded=0;orthogonalLoop=1;jettySize=auto;html=1;entryX=0.5;entryY=0;entryDx=0;entryDy=0;entryPerimeter=0;" edge="1" parent="1" source="Kb_YRcVbUNTg5b5ypHSj-12" target="Kb_YRcVbUNTg5b5ypHSj-15">
          <mxGeometry relative="1" as="geometry">
            <Array as="points">
              <mxPoint x="615" y="360" />
            </Array>
          </mxGeometry>
        </mxCell>
        <mxCell id="Kb_YRcVbUNTg5b5ypHSj-33" value="VPC" style="points=[[0,0],[0.25,0],[0.5,0],[0.75,0],[1,0],[1,0.25],[1,0.5],[1,0.75],[1,1],[0.75,1],[0.5,1],[0.25,1],[0,1],[0,0.75],[0,0.5],[0,0.25]];outlineConnect=0;gradientColor=none;html=1;whiteSpace=wrap;fontSize=12;fontStyle=0;container=1;pointerEvents=0;collapsible=0;recursiveResize=0;shape=mxgraph.aws4.group;grIcon=mxgraph.aws4.group_vpc2;strokeColor=#8C4FFF;fillColor=none;verticalAlign=top;align=left;spacingLeft=30;fontColor=#AAB7B8;dashed=0;" vertex="1" parent="1">
          <mxGeometry x="250" y="148" width="670" height="412" as="geometry" />
        </mxCell>
        <mxCell id="Kb_YRcVbUNTg5b5ypHSj-34" value="&lt;font style=&quot;color: rgb(255, 255, 255);&quot;&gt;Bronze&lt;/font&gt;&lt;div&gt;&lt;br&gt;&lt;/div&gt;" style="sketch=0;outlineConnect=0;fontColor=#232F3E;gradientColor=none;fillColor=#7AA116;strokeColor=none;dashed=0;verticalLabelPosition=bottom;verticalAlign=top;align=center;html=1;fontSize=12;fontStyle=0;aspect=fixed;pointerEvents=1;shape=mxgraph.aws4.bucket;" vertex="1" parent="1">
          <mxGeometry x="970" y="250.8" width="55" height="57.2" as="geometry" />
        </mxCell>
        <mxCell id="Kb_YRcVbUNTg5b5ypHSj-39" style="edgeStyle=orthogonalEdgeStyle;rounded=0;orthogonalLoop=1;jettySize=auto;html=1;" edge="1" parent="1" source="Kb_YRcVbUNTg5b5ypHSj-36" target="Kb_YRcVbUNTg5b5ypHSj-38">
          <mxGeometry relative="1" as="geometry" />
        </mxCell>
        <mxCell id="Kb_YRcVbUNTg5b5ypHSj-36" value="&lt;span style=&quot;background-color: light-dark(#ffffff, var(--ge-dark-color, #121212));&quot;&gt;&lt;font style=&quot;color: rgb(255, 255, 255);&quot;&gt;ETL&lt;/font&gt;&lt;/span&gt;" style="sketch=0;points=[[0,0,0],[0.25,0,0],[0.5,0,0],[0.75,0,0],[1,0,0],[0,1,0],[0.25,1,0],[0.5,1,0],[0.75,1,0],[1,1,0],[0,0.25,0],[0,0.5,0],[0,0.75,0],[1,0.25,0],[1,0.5,0],[1,0.75,0]];outlineConnect=0;fontColor=#232F3E;fillColor=#ED7100;strokeColor=#ffffff;dashed=0;verticalLabelPosition=bottom;verticalAlign=top;align=center;html=1;fontSize=12;fontStyle=0;aspect=fixed;shape=mxgraph.aws4.resourceIcon;resIcon=mxgraph.aws4.lambda;" vertex="1" parent="1">
          <mxGeometry x="970" y="410" width="56.5" height="56.5" as="geometry" />
        </mxCell>
        <mxCell id="Kb_YRcVbUNTg5b5ypHSj-37" style="edgeStyle=orthogonalEdgeStyle;rounded=0;orthogonalLoop=1;jettySize=auto;html=1;entryX=0.5;entryY=0;entryDx=0;entryDy=0;entryPerimeter=0;" edge="1" parent="1" source="Kb_YRcVbUNTg5b5ypHSj-34" target="Kb_YRcVbUNTg5b5ypHSj-36">
          <mxGeometry relative="1" as="geometry" />
        </mxCell>
        <mxCell id="Kb_YRcVbUNTg5b5ypHSj-38" value="&lt;div&gt;&lt;font color=&quot;#ffffff&quot;&gt;Silver&lt;/font&gt;&lt;/div&gt;" style="sketch=0;outlineConnect=0;fontColor=#232F3E;gradientColor=none;fillColor=#7AA116;strokeColor=none;dashed=0;verticalLabelPosition=bottom;verticalAlign=top;align=center;html=1;fontSize=12;fontStyle=0;aspect=fixed;pointerEvents=1;shape=mxgraph.aws4.bucket;" vertex="1" parent="1">
          <mxGeometry x="971.5" y="560" width="55" height="57.2" as="geometry" />
        </mxCell>
        <mxCell id="Kb_YRcVbUNTg5b5ypHSj-40" value="&lt;span style=&quot;background-color: light-dark(#ffffff, var(--ge-dark-color, #121212));&quot;&gt;&lt;font style=&quot;color: rgb(255, 255, 255);&quot;&gt;ETL&lt;/font&gt;&lt;/span&gt;" style="sketch=0;points=[[0,0,0],[0.25,0,0],[0.5,0,0],[0.75,0,0],[1,0,0],[0,1,0],[0.25,1,0],[0.5,1,0],[0.75,1,0],[1,1,0],[0,0.25,0],[0,0.5,0],[0,0.75,0],[1,0.25,0],[1,0.5,0],[1,0.75,0]];outlineConnect=0;fontColor=#232F3E;fillColor=#ED7100;strokeColor=#ffffff;dashed=0;verticalLabelPosition=bottom;verticalAlign=top;align=center;html=1;fontSize=12;fontStyle=0;aspect=fixed;shape=mxgraph.aws4.resourceIcon;resIcon=mxgraph.aws4.lambda;" vertex="1" parent="1">
          <mxGeometry x="1100" y="560.7" width="56.5" height="56.5" as="geometry" />
        </mxCell>
        <mxCell id="Kb_YRcVbUNTg5b5ypHSj-41" style="edgeStyle=orthogonalEdgeStyle;rounded=0;orthogonalLoop=1;jettySize=auto;html=1;entryX=0;entryY=0.5;entryDx=0;entryDy=0;entryPerimeter=0;" edge="1" parent="1" source="Kb_YRcVbUNTg5b5ypHSj-38" target="Kb_YRcVbUNTg5b5ypHSj-40">
          <mxGeometry relative="1" as="geometry" />
        </mxCell>
        <mxCell id="Kb_YRcVbUNTg5b5ypHSj-45" style="edgeStyle=orthogonalEdgeStyle;rounded=0;orthogonalLoop=1;jettySize=auto;html=1;" edge="1" parent="1" source="Kb_YRcVbUNTg5b5ypHSj-42" target="Kb_YRcVbUNTg5b5ypHSj-44">
          <mxGeometry relative="1" as="geometry">
            <Array as="points">
              <mxPoint x="1128" y="60" />
            </Array>
          </mxGeometry>
        </mxCell>
        <mxCell id="Kb_YRcVbUNTg5b5ypHSj-42" value="&lt;font style=&quot;color: rgb(255, 255, 255);&quot;&gt;RTR - Topic&lt;/font&gt;" style="sketch=0;points=[[0,0,0],[0.25,0,0],[0.5,0,0],[0.75,0,0],[1,0,0],[0,1,0],[0.25,1,0],[0.5,1,0],[0.75,1,0],[1,1,0],[0,0.25,0],[0,0.5,0],[0,0.75,0],[1,0.25,0],[1,0.5,0],[1,0.75,0]];outlineConnect=0;fontColor=#232F3E;fillColor=#E7157B;strokeColor=#ffffff;dashed=0;verticalLabelPosition=bottom;verticalAlign=top;align=center;html=1;fontSize=12;fontStyle=0;aspect=fixed;shape=mxgraph.aws4.resourceIcon;resIcon=mxgraph.aws4.sns;" vertex="1" parent="1">
          <mxGeometry x="1100" y="450" width="56.5" height="56.5" as="geometry" />
        </mxCell>
        <mxCell id="Kb_YRcVbUNTg5b5ypHSj-43" style="edgeStyle=orthogonalEdgeStyle;rounded=0;orthogonalLoop=1;jettySize=auto;html=1;entryX=0.5;entryY=1;entryDx=0;entryDy=0;entryPerimeter=0;" edge="1" parent="1" source="Kb_YRcVbUNTg5b5ypHSj-40" target="Kb_YRcVbUNTg5b5ypHSj-42">
          <mxGeometry relative="1" as="geometry" />
        </mxCell>
        <mxCell id="Kb_YRcVbUNTg5b5ypHSj-46" style="edgeStyle=orthogonalEdgeStyle;rounded=0;orthogonalLoop=1;jettySize=auto;html=1;" edge="1" parent="1" source="Kb_YRcVbUNTg5b5ypHSj-44" target="Kb_YRcVbUNTg5b5ypHSj-3">
          <mxGeometry relative="1" as="geometry" />
        </mxCell>
        <mxCell id="Kb_YRcVbUNTg5b5ypHSj-44" value="&lt;font style=&quot;color: rgb(255, 255, 255);&quot;&gt;Email&lt;/font&gt;" style="sketch=0;outlineConnect=0;fontColor=#232F3E;gradientColor=none;strokeColor=#232F3E;fillColor=#ffffff;dashed=0;verticalLabelPosition=bottom;verticalAlign=top;align=center;html=1;fontSize=12;fontStyle=0;aspect=fixed;shape=mxgraph.aws4.resourceIcon;resIcon=mxgraph.aws4.email;" vertex="1" parent="1">
          <mxGeometry x="570" y="30" width="60" height="60" as="geometry" />
        </mxCell>
        <mxCell id="Kb_YRcVbUNTg5b5ypHSj-56" style="edgeStyle=orthogonalEdgeStyle;rounded=0;orthogonalLoop=1;jettySize=auto;html=1;" edge="1" parent="1" source="Kb_YRcVbUNTg5b5ypHSj-47" target="Kb_YRcVbUNTg5b5ypHSj-3">
          <mxGeometry relative="1" as="geometry">
            <Array as="points">
              <mxPoint x="1000" y="1070" />
              <mxPoint x="120" y="1070" />
            </Array>
          </mxGeometry>
        </mxCell>
        <mxCell id="Kb_YRcVbUNTg5b5ypHSj-47" value="&lt;div&gt;&lt;font color=&quot;#ffffff&quot;&gt;Gold&lt;/font&gt;&lt;/div&gt;" style="sketch=0;outlineConnect=0;fontColor=#232F3E;gradientColor=none;fillColor=#7AA116;strokeColor=none;dashed=0;verticalLabelPosition=bottom;verticalAlign=top;align=center;html=1;fontSize=12;fontStyle=0;aspect=fixed;pointerEvents=1;shape=mxgraph.aws4.bucket;" vertex="1" parent="1">
          <mxGeometry x="973" y="800" width="55" height="57.2" as="geometry" />
        </mxCell>
        <mxCell id="Kb_YRcVbUNTg5b5ypHSj-50" style="edgeStyle=orthogonalEdgeStyle;rounded=0;orthogonalLoop=1;jettySize=auto;html=1;" edge="1" parent="1" source="Kb_YRcVbUNTg5b5ypHSj-48" target="Kb_YRcVbUNTg5b5ypHSj-47">
          <mxGeometry relative="1" as="geometry" />
        </mxCell>
        <mxCell id="Kb_YRcVbUNTg5b5ypHSj-48" value="&lt;span style=&quot;background-color: light-dark(#ffffff, var(--ge-dark-color, #121212));&quot;&gt;&lt;font style=&quot;color: rgb(255, 255, 255);&quot;&gt;ETL&lt;/font&gt;&lt;/span&gt;" style="sketch=0;points=[[0,0,0],[0.25,0,0],[0.5,0,0],[0.75,0,0],[1,0,0],[0,1,0],[0.25,1,0],[0.5,1,0],[0.75,1,0],[1,1,0],[0,0.25,0],[0,0.5,0],[0,0.75,0],[1,0.25,0],[1,0.5,0],[1,0.75,0]];outlineConnect=0;fontColor=#232F3E;fillColor=#ED7100;strokeColor=#ffffff;dashed=0;verticalLabelPosition=bottom;verticalAlign=top;align=center;html=1;fontSize=12;fontStyle=0;aspect=fixed;shape=mxgraph.aws4.resourceIcon;resIcon=mxgraph.aws4.lambda;" vertex="1" parent="1">
          <mxGeometry x="971.5" y="680" width="56.5" height="56.5" as="geometry" />
        </mxCell>
        <mxCell id="Kb_YRcVbUNTg5b5ypHSj-49" style="edgeStyle=orthogonalEdgeStyle;rounded=0;orthogonalLoop=1;jettySize=auto;html=1;entryX=0.5;entryY=0;entryDx=0;entryDy=0;entryPerimeter=0;" edge="1" parent="1" source="Kb_YRcVbUNTg5b5ypHSj-38" target="Kb_YRcVbUNTg5b5ypHSj-48">
          <mxGeometry relative="1" as="geometry" />
        </mxCell>
        <mxCell id="Kb_YRcVbUNTg5b5ypHSj-51" value="&lt;span style=&quot;background-color: light-dark(#ffffff, var(--ge-dark-color, #121212));&quot;&gt;&lt;font style=&quot;color: rgb(255, 255, 255);&quot;&gt;Glue&lt;/font&gt;&lt;/span&gt;" style="sketch=0;points=[[0,0,0],[0.25,0,0],[0.5,0,0],[0.75,0,0],[1,0,0],[0,1,0],[0.25,1,0],[0.5,1,0],[0.75,1,0],[1,1,0],[0,0.25,0],[0,0.5,0],[0,0.75,0],[1,0.25,0],[1,0.5,0],[1,0.75,0]];outlineConnect=0;fontColor=#232F3E;fillColor=#8C4FFF;strokeColor=#ffffff;dashed=0;verticalLabelPosition=bottom;verticalAlign=top;align=center;html=1;fontSize=12;fontStyle=0;aspect=fixed;shape=mxgraph.aws4.resourceIcon;resIcon=mxgraph.aws4.glue;" vertex="1" parent="1">
          <mxGeometry x="827" y="800" width="58" height="58" as="geometry" />
        </mxCell>
        <mxCell id="Kb_YRcVbUNTg5b5ypHSj-52" style="edgeStyle=orthogonalEdgeStyle;rounded=0;orthogonalLoop=1;jettySize=auto;html=1;entryX=1;entryY=0.5;entryDx=0;entryDy=0;entryPerimeter=0;" edge="1" parent="1" source="Kb_YRcVbUNTg5b5ypHSj-47" target="Kb_YRcVbUNTg5b5ypHSj-51">
          <mxGeometry relative="1" as="geometry" />
        </mxCell>
        <mxCell id="Kb_YRcVbUNTg5b5ypHSj-53" value="&lt;font style=&quot;color: rgb(255, 255, 255);&quot;&gt;Athena&lt;/font&gt;" style="sketch=0;points=[[0,0,0],[0.25,0,0],[0.5,0,0],[0.75,0,0],[1,0,0],[0,1,0],[0.25,1,0],[0.5,1,0],[0.75,1,0],[1,1,0],[0,0.25,0],[0,0.5,0],[0,0.75,0],[1,0.25,0],[1,0.5,0],[1,0.75,0]];outlineConnect=0;fontColor=#232F3E;fillColor=#8C4FFF;strokeColor=#ffffff;dashed=0;verticalLabelPosition=bottom;verticalAlign=top;align=center;html=1;fontSize=12;fontStyle=0;aspect=fixed;shape=mxgraph.aws4.resourceIcon;resIcon=mxgraph.aws4.athena;" vertex="1" parent="1">
          <mxGeometry x="640" y="800" width="58" height="58" as="geometry" />
        </mxCell>
        <mxCell id="Kb_YRcVbUNTg5b5ypHSj-54" style="edgeStyle=orthogonalEdgeStyle;rounded=0;orthogonalLoop=1;jettySize=auto;html=1;entryX=1;entryY=0.5;entryDx=0;entryDy=0;entryPerimeter=0;" edge="1" parent="1" source="Kb_YRcVbUNTg5b5ypHSj-51" target="Kb_YRcVbUNTg5b5ypHSj-53">
          <mxGeometry relative="1" as="geometry" />
        </mxCell>
        <mxCell id="Kb_YRcVbUNTg5b5ypHSj-55" style="edgeStyle=orthogonalEdgeStyle;rounded=0;orthogonalLoop=1;jettySize=auto;html=1;" edge="1" parent="1" source="Kb_YRcVbUNTg5b5ypHSj-53" target="Kb_YRcVbUNTg5b5ypHSj-10">
          <mxGeometry relative="1" as="geometry">
            <Array as="points">
              <mxPoint x="370" y="829" />
              <mxPoint x="370" y="500" />
              <mxPoint x="470" y="500" />
            </Array>
          </mxGeometry>
        </mxCell>
      </root>
    </mxGraphModel>
  </diagram>
</mxfile>
